{
  "asset": {
    "generator": "Khronos glTF Blender I/O v1.7.33",
    "version": "2.0"
  },
  "scene": 0,
  "scenes": [
    {
      "name": "Scene",
      "nodes": [
        0,
        1
      ]
    }
  ],
  "nodes": [
    {
      "mesh": 0,
      "name": "Preview_Mesh"
    },
    {
      "mesh": 1,
      "name": "Calibration_Mesh"
    }
  ],
  "materials": [
    {
      "name": "DefaultMaterial",
      "pbrMetallicRoughness": {
        "baseColorFactor": [
          0.6000000238418579,
          0.6000000238418579,
          0.6000000238418579,
          1
        ],
        "metallicFactor": 0
      }
    }
  ],
  "meshes": [
    {
      "name": "Preview_Mesh",
      "primitives": [
        {
          "attributes": {
            "POSITION": 0,
            "NORMAL": 1,
            "TEXCOORD_0": 2
          },
          "indices": 3,
          "material": 0
        }
      ]
    },
    {
      "name": "Calibration_Mesh",
      "primitives": [
        {
          "attributes": {
            "POSITION": 4,
            "NORMAL": 5,
            "TEXCOORD_0": 6
          },
          "indices": 7,
          "material": 0
        }
      ]
    }
  ],
  "accessors": [
    {
      "bufferView": 0,
      "componentType": 5126,
      "count": 36230,
      "max": [
        1.0168780088424683,
        2.091491937637329,
        0.9763060212135315
      ],
      "min": [
        -1.1265790462493896,
        0.07684300094842911,
        -1.1052850484848022
      ],
      "type": "VEC3"
    },
    {
      "bufferView": 1,
      "componentType": 5126,
      "count": 36230,
      "type": "VEC3"
    },
    {
      "bufferView": 2,
      "componentType": 5126,
      "count": 36230,
      "type": "VEC2"
    },
    {
      "bufferView": 3,
      "componentType": 5123,
      "count": 212424,
      "type": "SCALAR"
    },
    {
      "bufferView": 4,
      "componentType": 5126,
      "count": 9289,
      "max": [
        0.6733869910240173,
        1.8961529731750488,
        0.7821810245513916
      ],
      "min": [
        -0.7826089859008789,
        0.004230000078678131,
        -0.763903021812439
      ],
      "type": "VEC3"
    },
    {
      "bufferView": 5,
      "componentType": 5126,
      "count": 9289,
      "type": "VEC3"
    },
    {
      "bufferView": 6,
      "componentType": 5126,
      "count": 9289,
      "type": "VEC2"
    },
    {
      "bufferView": 7,
      "componentType": 5123,
      "count": 52368,
      "type": "SCALAR"
    }
  ],
  "bufferViews": [
    {
      "buffer": 0,
      "byteLength": 434760,
      "byteOffset": 0
    },
    {
      "buffer": 0,
      "byteLength": 434760,
      "byteOffset": 434760
    },
    {
      "buffer": 0,
      "byteLength": 289840,
      "byteOffset": 869520
    },
    {
      "buffer": 0,
      "byteLength": 424848,
      "byteOffset": 1159360
    },
    {
      "buffer": 0,
      "byteLength": 111468,
      "byteOffset": 1584208
    },
    {
      "buffer": 0,
      "byteLength": 111468,
      "byteOffset": 1695676
    },
    {
      "buffer": 0,
      "byteLength": 74312,
      "byteOffset": 1807144
    },
    {
      "buffer": 0,
      "byteLength": 104736,
      "byteOffset": 1881456
    }
  ],
  "buffers": [
    {
      "uri": "flat_shaderball_data.bin",
      "byteLength": 1986192
    }
  ]
}